<?xml version="1.0" encoding="UTF-8"?>
<svg version="1.1" xmlns="http://www.w3.org/2000/svg" width="32" height="32">
<path d="M0 0 C10.56 0 21.12 0 32 0 C32 10.56 32 21.12 32 32 C21.44 32 10.88 32 0 32 C0 21.44 0 10.88 0 0 Z " fill="#FBFBFC" transform="translate(0,0)"/>
<path d="M0 0 C0.66 0.66 1.32 1.32 2 2 C1.67 2.99 1.34 3.98 1 5 C7.6 5 14.2 5 21 5 C21 8.3 21 11.6 21 15 C10.44 15 -0.12 15 -11 15 C-11 10.71 -11 6.42 -11 2 C-7.24483454 0.74827818 -3.95592656 0.31396243 0 0 Z " fill="#FEFEFE" transform="translate(11,17)"/>
<path d="M0 0 C0.99 0.33 1.98 0.66 3 1 C2.01 1.66 1.02 2.32 0 3 C5.445 2.505 5.445 2.505 11 2 C11.33 2.66 11.66 3.32 12 4 C11.0625 6.125 11.0625 6.125 10 8 C10.99 8 11.98 8 13 8 C13 9.65 13 11.3 13 13 C9.7 13 6.4 13 3 13 C2.67 11.68 2.34 10.36 2 9 C-2.455 9.495 -2.455 9.495 -7 10 C-7 5.69032084 -4.83274712 4.10253255 -2 1 C-1.34 0.67 -0.68 0.34 0 0 Z " fill="#FAF8F8" transform="translate(9,9)"/>
<path d="M0 0 C0.99 0.33 1.98 0.66 3 1 C2.38125 1.2475 1.7625 1.495 1.125 1.75 C-1.35068687 3.20628639 -1.95125002 4.37812506 -3 7 C-3.66 7 -4.32 7 -5 7 C-5 7.66 -5 8.32 -5 9 C-3.02 8.67 -1.04 8.34 1 8 C-1 10 -1 10 -4.625 10.125 C-5.73875 10.08375 -6.8525 10.0425 -8 10 C-6.56854369 4.98990293 -4.17048478 2.89380576 0 0 Z " fill="#A6A7C8" transform="translate(9,9)"/>
<path d="M0 0 C-2.87299742 2.87299742 -6.12618444 2.70850497 -10 3 C-13 3 -13 3 -15 2 C-10.05000278 -0.18382231 -5.29735109 -1.83369845 0 0 Z " fill="#F7C781" transform="translate(21,12)"/>
<path d="M0 0 C7.75 -0.125 7.75 -0.125 10 1 C10 1.66 10 2.32 10 3 C6.7 3 3.4 3 0 3 C0 2.01 0 1.02 0 0 Z " fill="#B5B5D1" transform="translate(12,19)"/>
<path d="M0 0 C3.3 0 6.6 0 10 0 C10 0.66 10 1.32 10 2 C7.36 2.33 4.72 2.66 2 3 C1.34 2.01 0.68 1.02 0 0 Z " fill="#DCDCE9" transform="translate(12,17)"/>
</svg>
