<?xml version="1.0" encoding="UTF-8"?>
<svg version="1.1" xmlns="http://www.w3.org/2000/svg" width="128" height="128">
<path d="M0 0 C42.24 0 84.48 0 128 0 C128 42.24 128 84.48 128 128 C85.76 128 43.52 128 0 128 C0 85.76 0 43.52 0 0 Z " fill="#FCFCFD" transform="translate(0,0)"/>
<path d="M0 0 C-1.0725 0.37125 -2.145 0.7425 -3.25 1.125 C-12.20838511 4.51422918 -19.92155954 8.5370761 -27 15 C-27.66 15 -28.32 15 -29 15 C-29.2475 15.515625 -29.495 16.03125 -29.75 16.5625 C-31.39581616 19.77184151 -33.1976096 22.87585664 -35 26 C-34.18917969 25.48050781 -33.37835938 24.96101563 -32.54296875 24.42578125 C-12.67861963 11.91517255 -12.67861963 11.91517255 -4 13 C-3.01 13.33 -2.02 13.66 -1 14 C1.12169485 13.23932746 1.12169485 13.23932746 3.3125 12.0625 C7.06457933 10.29034527 9.78726783 9.48625217 14 10 C14.66 10.33 15.32 10.66 16 11 C17.92330789 10.23730894 19.84657536 9.47451561 21.76953125 8.7109375 C25.34683043 7.57071254 28.26066285 7.68310702 32 8 C32.99 8.66 33.98 9.32 35 10 C34.84518205 12.70931419 34.51827919 14.46584039 32.59765625 16.4453125 C31.10228292 17.67679642 29.5537076 18.8429837 28 20 C28 15.31908701 28.99645871 14.37898396 32 11 C23.63475825 11.93411866 16.37604001 13.24343477 10.47265625 19.66015625 C9 21 9 21 6 21 C6.39803561 18.11424181 6.79009069 17.17810487 9.0625 15.25 C10.0215625 14.63125 10.0215625 14.63125 11 14 C6.15914912 14.52021084 2.98867023 15.93290144 -1.125 18.5 C-7.36428029 22.37375163 -7.36428029 22.37375163 -11 23 C-9.70700306 20.11562221 -8.34058637 18.12780579 -6 16 C-16.55937053 18.03064818 -25.76855405 23.17274189 -34 30 C-33.34 31.32 -32.68 32.64 -32 34 C-24.90565893 34.40928891 -18.80945028 32.90962696 -12 31 C-10.84951172 30.68095703 -10.84951172 30.68095703 -9.67578125 30.35546875 C-8.11391148 29.91510385 -6.55625806 29.45980352 -5 29 C-9.49368484 34.32064768 -17.49142109 36.48824189 -24.16015625 37.4609375 C-28.57510459 37.61543098 -31.08152578 37.6835157 -34.6875 35 C-35.120625 34.34 -35.55375 33.68 -36 33 C-36.598125 33.309375 -37.19625 33.61875 -37.8125 33.9375 C-40 35 -40 35 -43 36 C-42.4409112 32.75728494 -41.5867822 31.06942576 -39 29 C-38.34 29 -37.68 29 -37 29 C-37.103125 28.175 -37.20625 27.35 -37.3125 26.5 C-36.62983069 18.85410376 -31.23782296 13.67393834 -25.59765625 8.890625 C-18.82567394 3.96184389 -8.61069263 -2.54238123 0 0 Z " fill="#F39A1D" transform="translate(48,38)"/>
<path d="M0 0 C-1.0725 0.37125 -2.145 0.7425 -3.25 1.125 C-12.20838511 4.51422918 -19.92155954 8.5370761 -27 15 C-27.66 15 -28.32 15 -29 15 C-29.2475 15.515625 -29.495 16.03125 -29.75 16.5625 C-31.39581616 19.77184151 -33.1976096 22.87585664 -35 26 C-34.38511719 25.566875 -33.77023438 25.13375 -33.13671875 24.6875 C-32.32847656 24.130625 -31.52023438 23.57375 -30.6875 23 C-29.88699219 22.443125 -29.08648437 21.88625 -28.26171875 21.3125 C-26 20 -26 20 -23 20 C-24.26540052 23.79620155 -25.78218431 24.48678188 -29.0625 26.6875 C-29.98160156 27.31011719 -30.90070312 27.93273437 -31.84765625 28.57421875 C-32.91306641 29.27998047 -32.91306641 29.27998047 -34 30 C-33.34 31.32 -32.68 32.64 -32 34 C-24.90565893 34.40928891 -18.80945028 32.90962696 -12 31 C-10.84951172 30.68095703 -10.84951172 30.68095703 -9.67578125 30.35546875 C-8.11391148 29.91510385 -6.55625806 29.45980352 -5 29 C-9.49368484 34.32064768 -17.49142109 36.48824189 -24.16015625 37.4609375 C-28.57510459 37.61543098 -31.08152578 37.6835157 -34.6875 35 C-35.120625 34.34 -35.55375 33.68 -36 33 C-36.598125 33.309375 -37.19625 33.61875 -37.8125 33.9375 C-40 35 -40 35 -43 36 C-42.4409112 32.75728494 -41.5867822 31.06942576 -39 29 C-38.34 29 -37.68 29 -37 29 C-37.103125 28.175 -37.20625 27.35 -37.3125 26.5 C-36.62983069 18.85410376 -31.23782296 13.67393834 -25.59765625 8.890625 C-18.82567394 3.96184389 -8.61069263 -2.54238123 0 0 Z " fill="#333682" transform="translate(48,38)"/>
<path d="M0 0 C-1.0725 0.37125 -2.145 0.7425 -3.25 1.125 C-12.20838511 4.51422918 -19.92155954 8.5370761 -27 15 C-27.66 15 -28.32 15 -29 15 C-29.268125 15.556875 -29.53625 16.11375 -29.8125 16.6875 C-31 19 -31 19 -32.625 21.5625 C-34.24566059 23.96905979 -34.24566059 23.96905979 -34 27 C-34.99 27 -35.98 27 -37 27 C-36.2096009 18.7008094 -31.70447306 14.19098174 -25.6328125 8.9609375 C-18.91677167 3.95878246 -8.60602539 -2.54100319 0 0 Z " fill="#42458C" transform="translate(48,38)"/>
<path d="M0 0 C2.14255793 -0.38932856 2.14255793 -0.38932856 4 -1 C2.55224845 2.59981466 0.79045708 4.15103283 -2.4375 6.25 C-3.21996094 6.77078125 -4.00242187 7.2915625 -4.80859375 7.828125 C-7 9 -7 9 -10 9 C-8.70700306 6.11562221 -7.34058637 4.12780579 -5 2 C-11.06860493 3.32405926 -16.39763719 5.32850292 -22 8 C-22.33 7.01 -22.66 6.02 -23 5 C-20.98757061 3.98319357 -18.9645868 2.98726211 -16.9375 2 C-15.24947266 1.1646875 -15.24947266 1.1646875 -13.52734375 0.3125 C-8.70253949 -1.482776 -4.88025844 -1.62675281 0 0 Z " fill="#F29510" transform="translate(47,52)"/>
<path d="M0 0 C0.66 0 1.32 0 2 0 C2 0.66 2 1.32 2 2 C4.64 2.33 7.28 2.66 10 3 C9.34 4.65 8.68 6.3 8 8 C8.66 8.66 9.32 9.32 10 10 C3.9453125 10.9765625 3.9453125 10.9765625 2 11 C-0.5986701 8.4013299 -0.63249261 6.60157242 -1 3 C-0.67 2.01 -0.34 1.02 0 0 Z " fill="#A9AACA" transform="translate(113,78)"/>
<path d="M0 0 C0.99 0.66 1.98 1.32 3 2 C2.84518205 4.70931419 2.51827919 6.46584039 0.59765625 8.4453125 C-0.89771708 9.67679642 -2.4462924 10.8429837 -4 12 C-4 8 -4 8 0 3 C-4.29 3.66 -8.58 4.32 -13 5 C-13.33 4.01 -13.66 3.02 -14 2 C-9.05601526 0.0224061 -5.24801962 -0.34413243 0 0 Z " fill="#F4A435" transform="translate(80,46)"/>
<path d="M0 0 C0.99 0.66 1.98 1.32 3 2 C3.99 2 4.98 2 6 2 C6 3.32 6 4.64 6 6 C2 6 -2 6 -6 6 C-6.99 6.495 -6.99 6.495 -8 7 C-8.33 5.02 -8.66 3.04 -9 1 C-7.700625 1.020625 -6.40125 1.04125 -5.0625 1.0625 C-3.70834367 1.08399454 -2.35243917 1.07148199 -1 1 C-0.67 0.67 -0.34 0.34 0 0 Z " fill="#9A9AC1" transform="translate(61,67)"/>
<path d="M0 0 C0.66 0.33 1.32 0.66 2 1 C-6.96834685 6.53366082 -14.41606037 8.53414275 -25 8 C-25 7.34 -25 6.68 -25 6 C-23.2984375 5.72736328 -23.2984375 5.72736328 -21.5625 5.44921875 C-20.04159623 5.19573479 -18.52076678 4.94180459 -17 4.6875 C-16.25621094 4.56955078 -15.51242188 4.45160156 -14.74609375 4.33007812 C-10.82559291 3.66529755 -7.26463877 2.80234269 -3.5625 1.33203125 C-2.386875 0.89246094 -1.21125 0.45289062 0 0 Z " fill="#4A4D90" transform="translate(41,67)"/>
<path d="M0 0 C-1.0725 0.37125 -2.145 0.7425 -3.25 1.125 C-9.05240558 3.28790387 -14.4994798 6.17357885 -20 9 C-20.99 9.495 -20.99 9.495 -22 10 C-22.66 9.34 -23.32 8.68 -24 8 C-7.86924302 -2.6051147 -7.86924302 -2.6051147 0 0 Z " fill="#4F5193" transform="translate(48,38)"/>
<path d="M0 0 C1.65 1.32 3.3 2.64 5 4 C5.66 2.68 6.32 1.36 7 0 C7.66 0 8.32 0 9 0 C9 3.3 9 6.6 9 10 C8.34 10 7.68 10 7 10 C6.67 9.01 6.34 8.02 6 7 C5.01 7.33 4.02 7.66 3 8 C2.67 7.34 2.34 6.68 2 6 C1.34 7.32 0.68 8.64 0 10 C0 6.7 0 3.4 0 0 Z " fill="#42458C" transform="translate(93,78)"/>
<path d="M0 0 C2.31 0 4.62 0 7 0 C7 0.66 7 1.32 7 2 C5.35 2 3.7 2 2 2 C2 2.99 2 3.98 2 5 C3.32 5 4.64 5 6 5 C6 5.66 6 6.32 6 7 C4.68 7 3.36 7 2 7 C2 7.99 2 8.98 2 10 C3.65 10 5.3 10 7 10 C7 10.33 7 10.66 7 11 C4.69 11 2.38 11 0 11 C0 7.37 0 3.74 0 0 Z " fill="#525495" transform="translate(49,77)"/>
<path d="M0 0 C-3.20970449 1.63542086 -6.46807572 3.14031997 -9.75 4.625 C-10.73484375 5.07101563 -11.7196875 5.51703125 -12.734375 5.9765625 C-13.85585938 6.48316406 -13.85585938 6.48316406 -15 7 C-15.33 6.01 -15.66 5.02 -16 4 C-5.62642369 -1.92482916 -5.62642369 -1.92482916 0 0 Z " fill="#F39C23" transform="translate(40,53)"/>
<path d="M0 0 C2 3 2 3 2 7 C-0.97 6.67 -3.94 6.34 -7 6 C-7 4.35 -7 2.7 -7 1 C-5.824375 1.309375 -5.824375 1.309375 -4.625 1.625 C-3.75875 1.74875 -2.8925 1.8725 -2 2 C-1.34 1.34 -0.68 0.68 0 0 Z " fill="#9C9CC2" transform="translate(85,66)"/>
<path d="M0 0 C1.65 0 3.3 0 5 0 C5.33 1.32 5.66 2.64 6 4 C5.01 4.495 5.01 4.495 4 5 C4.33 5.66 4.66 6.32 5 7 C3.35 6.67 1.7 6.34 0 6 C-1.125 2.25 -1.125 2.25 0 0 Z " fill="#6365A0" transform="translate(105,81)"/>
<path d="M0 0 C1.67542976 0.28604898 3.34385343 0.61781233 5 1 C5 1.99 5 2.98 5 4 C3.68 4 2.36 4 1 4 C1 4.66 1 5.32 1 6 C1.99 6.33 2.98 6.66 4 7 C2.35 6.67 0.7 6.34 -1 6 C-1.042721 4.33388095 -1.04063832 2.66617115 -1 1 C-0.67 0.67 -0.34 0.34 0 0 Z " fill="#5C5E9B" transform="translate(81,81)"/>
<path d="M0 0 C1.65 0 3.3 0 5 0 C3.49901406 3.11743233 1.97568178 6.15501823 0 9 C-0.99 9 -1.98 9 -3 9 C-2.60196439 6.11424181 -2.20990931 5.17810487 0.0625 3.25 C0.701875 2.8375 1.34125 2.425 2 2 C1.34 1.34 0.68 0.68 0 0 Z " fill="#F39C21" transform="translate(57,50)"/>
<path d="M0 0 C0.59296875 0.22558594 1.1859375 0.45117188 1.796875 0.68359375 C0.70403923 1.71654811 -0.40283079 2.7346721 -1.515625 3.74609375 C-2.13050781 4.31457031 -2.74539062 4.88304687 -3.37890625 5.46875 C-3.98089844 5.86964844 -4.58289063 6.27054688 -5.203125 6.68359375 C-6.193125 6.35359375 -7.183125 6.02359375 -8.203125 5.68359375 C-7.30284912 4.64827649 -6.38219465 3.6306521 -5.453125 2.62109375 C-4.68742187 1.76837891 -4.68742187 1.76837891 -3.90625 0.8984375 C-2.203125 -0.31640625 -2.203125 -0.31640625 0 0 Z " fill="#393D87" transform="translate(24.203125,47.31640625)"/>
<path d="M0 0 C0.33 1.32 0.66 2.64 1 4 C-1.97 6.475 -1.97 6.475 -5 9 C-5 5 -5 5 -2.5 2.25 C-1.675 1.5075 -0.85 0.765 0 0 Z " fill="#F2981A" transform="translate(81,49)"/>
<path d="M0 0 C2.31 0.33 4.62 0.66 7 1 C6.67 2.32 6.34 3.64 6 5 C5.01 4.67 4.02 4.34 3 4 C2.01 4.33 1.02 4.66 0 5 C0 3.35 0 1.7 0 0 Z " fill="#8C8CB8" transform="translate(70,67)"/>
<path d="M0 0 C0.66 0 1.32 0 2 0 C2.33 2.97 2.66 5.94 3 9 C2.01 9 1.02 9 0 9 C-1.125 3.375 -1.125 3.375 0 0 Z " fill="#4E5193" transform="translate(113,78)"/>
<path d="M0 0 C1.65 0 3.3 0 5 0 C3.66667905 3.99996286 1.5042173 4.83782337 -2 7 C-2.66 6.67 -3.32 6.34 -4 6 C-3.525625 5.566875 -3.05125 5.13375 -2.5625 4.6875 C-0.76313043 2.97690387 -0.76313043 2.97690387 0 0 Z " fill="#F2940C" transform="translate(62,49)"/>
<path d="M0 0 C0.66 0 1.32 0 2 0 C2 3.3 2 6.6 2 10 C1.67 10 1.34 10 1 10 C1 8.02 1 6.04 1 4 C0.34 4 -0.32 4 -1 4 C-0.67 2.68 -0.34 1.36 0 0 Z " fill="#313582" transform="translate(100,78)"/>
</svg>
