<?xml version="1.0" encoding="UTF-8"?>
<svg version="1.1" xmlns="http://www.w3.org/2000/svg" width="252" height="120">
<path d="M0 0 C-1 2 -1 2 -2.69555664 2.66674805 C-3.42637451 2.86308838 -4.15719238 3.05942871 -4.91015625 3.26171875 C-5.72750244 3.48980225 -6.54484863 3.71788574 -7.38696289 3.95288086 C-8.26989014 4.19530518 -9.15281738 4.43772949 -10.0625 4.6875 C-31.00352584 10.72224295 -52.95602506 20.67463303 -66 39 C-67.03334794 40.98297555 -68.04019194 42.98040388 -69 45 C-68.20980469 44.52691406 -67.41960937 44.05382813 -66.60546875 43.56640625 C-30.36929213 22.32165356 -30.36929213 22.32165356 -13 22 C-9.78384707 22.90891278 -8.35959872 23.64040128 -6 26 C-4.99839844 25.59007813 -3.99679688 25.18015625 -2.96484375 24.7578125 C-1.62247193 24.213354 -0.2800197 23.66909375 1.0625 23.125 C1.71927734 22.85558594 2.37605469 22.58617188 3.05273438 22.30859375 C14.44894363 17.70519888 14.44894363 17.70519888 20.6875 17.75 C21.41324219 17.74484375 22.13898438 17.7396875 22.88671875 17.734375 C25 18 25 18 26.78515625 19.1640625 C30.33846336 20.50516959 33.33400423 18.84186182 36.75 17.625 C45.0968621 14.91724896 53.23714448 13.53615893 62 15 C64.91796875 16.85546875 64.91796875 16.85546875 67 19 C67.7367184 22.76544959 67.2123498 24.5753004 65.5 28 C62.49472439 31.60633073 59.23371828 34.87487188 55 37 C52.75 36.66015625 52.75 36.66015625 51 36 C50.72265625 33.76171875 50.72265625 33.76171875 51 31 C52.93359375 28.83203125 52.93359375 28.83203125 55.4375 26.8125 C58.70544403 24.29812718 58.70544403 24.29812718 61 21 C43.76263632 21.57266989 30.25653289 26.02486227 17.359375 37.42578125 C14.63043466 39.24658084 13.21633765 39.41590573 10 39 C9 38 9 38 8.59375 35.70703125 C9 33 9 33 11.40625 30.76171875 C12.4271875 30.07722656 13.448125 29.39273438 14.5 28.6875 C15.5209375 27.99011719 16.541875 27.29273437 17.59375 26.57421875 C18.3878125 26.05472656 19.181875 25.53523438 20 25 C6.90565565 27.25764558 -4.0607357 33.29613359 -15.04663086 40.48022461 C-15.77760986 40.94952393 -16.50858887 41.41882324 -17.26171875 41.90234375 C-17.91100342 42.33023193 -18.56028809 42.75812012 -19.22924805 43.19897461 C-21 44 -21 44 -24 43 C-24.33 41.35 -24.66 39.7 -25 38 C-21.37 35.03 -17.74 32.06 -14 29 C-33.04337875 33.09794226 -50.56860546 41.72744289 -66.3984375 53.00390625 C-68 54 -68 54 -70 54 C-69.03308081 56.63705234 -68.41996252 57.77830975 -65.8984375 59.109375 C-62.33988926 60.20283726 -59.00205254 60.38350519 -55.3125 60.375 C-54.57354492 60.37338867 -53.83458984 60.37177734 -53.07324219 60.37011719 C-40.89042576 60.10850723 -29.0824369 56.59099948 -17.6015625 52.734375 C-15 52 -15 52 -11 52 C-12 55 -12 55 -13.61962891 56.01147461 C-14.31491699 56.30546143 -15.01020508 56.59944824 -15.7265625 56.90234375 C-16.50354492 57.23363281 -17.28052734 57.56492188 -18.08105469 57.90625 C-18.92055664 58.2465625 -19.76005859 58.586875 -20.625 58.9375 C-21.48512695 59.28941406 -22.34525391 59.64132813 -23.23144531 60.00390625 C-36.47633894 65.30382664 -51.48171141 70.51156988 -65.6875 65.75 C-68.79126418 64.11027553 -70.85709974 62.76791283 -73 60 C-73 59.34 -73 58.68 -73 58 C-73.75925781 58.58910156 -74.51851562 59.17820313 -75.30078125 59.78515625 C-76.29464844 60.53667969 -77.28851563 61.28820312 -78.3125 62.0625 C-79.79169922 63.19365234 -79.79169922 63.19365234 -81.30078125 64.34765625 C-82.19152344 64.89292969 -83.08226563 65.43820313 -84 66 C-84.99 65.67 -85.98 65.34 -87 65 C-87.80078125 62.80078125 -87.80078125 62.80078125 -88 60 C-85.98046875 57.54296875 -85.98046875 57.54296875 -83.1875 55.1875 C-82.27355469 54.39730469 -81.35960938 53.60710937 -80.41796875 52.79296875 C-78 51 -78 51 -76 51 C-75.9071875 49.0509375 -75.9071875 49.0509375 -75.8125 47.0625 C-74.38409581 34.8734509 -64.63000781 25.64407547 -55.4375 18.375 C-42.52047491 9.12052379 -16.38798044 -5.27165804 0 0 Z " fill="#F19000" transform="translate(96,15)"/>
<path d="M0 0 C-1 2 -1 2 -2.69555664 2.66674805 C-3.42637451 2.86308838 -4.15719238 3.05942871 -4.91015625 3.26171875 C-5.72750244 3.48980225 -6.54484863 3.71788574 -7.38696289 3.95288086 C-8.26989014 4.19530518 -9.15281738 4.43772949 -10.0625 4.6875 C-31.00352584 10.72224295 -52.95602506 20.67463303 -66 39 C-67.03334794 40.98297555 -68.04019194 42.98040388 -69 45 C-67.57107422 44.16855469 -67.57107422 44.16855469 -66.11328125 43.3203125 C-64.84645443 42.58836811 -63.57952173 41.85660695 -62.3125 41.125 C-61.68666016 40.76019531 -61.06082031 40.39539062 -60.41601562 40.01953125 C-53.27270298 35.90558156 -53.27270298 35.90558156 -50 35 C-49.01 35.66 -48.02 36.32 -47 37 C-47 38.32 -47 39.64 -47 41 C-48.78833008 42.53979492 -48.78833008 42.53979492 -51.26953125 43.98046875 C-52.15833984 44.50447266 -53.04714844 45.02847656 -53.96289062 45.56835938 C-54.90326172 46.10267578 -55.84363281 46.63699219 -56.8125 47.1875 C-57.74126953 47.73341797 -58.67003906 48.27933594 -59.62695312 48.84179688 C-66.44709218 52.81569739 -66.44709218 52.81569739 -70 54 C-69.03308081 56.63705234 -68.41996252 57.77830975 -65.8984375 59.109375 C-62.33988926 60.20283726 -59.00205254 60.38350519 -55.3125 60.375 C-54.57354492 60.37338867 -53.83458984 60.37177734 -53.07324219 60.37011719 C-40.89042576 60.10850723 -29.0824369 56.59099948 -17.6015625 52.734375 C-15 52 -15 52 -11 52 C-12 55 -12 55 -13.61962891 56.01147461 C-14.31491699 56.30546143 -15.01020508 56.59944824 -15.7265625 56.90234375 C-16.50354492 57.23363281 -17.28052734 57.56492188 -18.08105469 57.90625 C-18.92055664 58.2465625 -19.76005859 58.586875 -20.625 58.9375 C-21.48512695 59.28941406 -22.34525391 59.64132813 -23.23144531 60.00390625 C-36.47633894 65.30382664 -51.48171141 70.51156988 -65.6875 65.75 C-68.79126418 64.11027553 -70.85709974 62.76791283 -73 60 C-73 59.34 -73 58.68 -73 58 C-73.75925781 58.58910156 -74.51851562 59.17820313 -75.30078125 59.78515625 C-76.29464844 60.53667969 -77.28851563 61.28820312 -78.3125 62.0625 C-79.79169922 63.19365234 -79.79169922 63.19365234 -81.30078125 64.34765625 C-82.19152344 64.89292969 -83.08226563 65.43820313 -84 66 C-84.99 65.67 -85.98 65.34 -87 65 C-87.80078125 62.80078125 -87.80078125 62.80078125 -88 60 C-85.98046875 57.54296875 -85.98046875 57.54296875 -83.1875 55.1875 C-82.27355469 54.39730469 -81.35960938 53.60710937 -80.41796875 52.79296875 C-78 51 -78 51 -76 51 C-75.9071875 49.0509375 -75.9071875 49.0509375 -75.8125 47.0625 C-74.38409581 34.8734509 -64.63000781 25.64407547 -55.4375 18.375 C-42.52047491 9.12052379 -16.38798044 -5.27165804 0 0 Z " fill="#2D2E81" transform="translate(96,15)"/>
<path d="M0 0 C1.65 0 3.3 0 5 0 C6.65 2.97 8.3 5.94 10 9 C11.65 6.03 13.3 3.06 15 0 C16.65 0 18.3 0 20 0 C20 6.6 20 13.2 20 20 C18.35 20 16.7 20 15 20 C14.67 18.02 14.34 16.04 14 14 C13.01 15.485 13.01 15.485 12 17 C10.68 17 9.36 17 8 17 C7.34 15.68 6.68 14.36 6 13 C5.67 15.31 5.34 17.62 5 20 C3.35 20 1.7 20 0 20 C0 13.4 0 6.8 0 0 Z " fill="#2D2E82" transform="translate(181,85)"/>
<path d="M0 0 C0.99 0 1.98 0 3 0 C3 2.64 3 5.28 3 8 C4.32 8 5.64 8 7 8 C6.67 6.35 6.34 4.7 6 3 C6.99 3 7.98 3 9 3 C9 3.66 9 4.32 9 5 C9.66 5 10.32 5 11 5 C11 4.34 11 3.68 11 3 C11.77085938 3.03480469 12.54171875 3.06960937 13.3359375 3.10546875 C14.84027344 3.14607422 14.84027344 3.14607422 16.375 3.1875 C17.37273437 3.22230469 18.37046875 3.25710937 19.3984375 3.29296875 C20.68621094 3.14794922 20.68621094 3.14794922 22 3 C22.66 2.01 23.32 1.02 24 0 C24.99 0 25.98 0 27 0 C27.33 1.32 27.66 2.64 28 4 C29.134375 3.814375 30.26875 3.62875 31.4375 3.4375 C33.2009375 3.2209375 33.2009375 3.2209375 35 3 C36 4 36 4 36.0625 7.5625 C36.041875 8.696875 36.02125 9.83125 36 11 C29 11 22 11 15 11 C14.67 10.01 14.34 9.02 14 8 C13.34 8 12.68 8 12 8 C11.67 9.65 11.34 11.3 11 13 C9.68 13.33 8.36 13.66 7 14 C7 13.01 7 12.02 7 11 C4.36 11 1.72 11 -1 11 C-1.02688151 9.35425434 -1.04634123 7.70838587 -1.0625 6.0625 C-1.07410156 5.14597656 -1.08570312 4.22945313 -1.09765625 3.28515625 C-1 1 -1 1 0 0 Z M17 6 C17.33 6.99 17.66 7.98 18 9 C18.66 8.67 19.32 8.34 20 8 C20 7.34 20 6.68 20 6 C19.01 6 18.02 6 17 6 Z " fill="#2D2E82" transform="translate(96,66)"/>
<path d="M0 0 C3.10439786 -0.0538854 6.20786307 -0.09361739 9.3125 -0.125 C10.19357422 -0.14175781 11.07464844 -0.15851563 11.98242188 -0.17578125 C12.82998047 -0.18222656 13.67753906 -0.18867187 14.55078125 -0.1953125 C15.72120972 -0.21102295 15.72120972 -0.21102295 16.9152832 -0.22705078 C19 0 19 0 22 2 C22.29296875 5.0390625 22.29296875 5.0390625 22.1875 8.625 C22.16042969 9.81351563 22.13335937 11.00203125 22.10546875 12.2265625 C22.07066406 13.14179687 22.03585938 14.05703125 22 15 C20.68 15 19.36 15 18 15 C17.505 10.05 17.505 10.05 17 5 C16.01 5 15.02 5 14 5 C13.67 8.3 13.34 11.6 13 15 C11.68 15 10.36 15 9 15 C8.67 11.7 8.34 8.4 8 5 C7.01 5 6.02 5 5 5 C4.67 8.3 4.34 11.6 4 15 C2.68 15 1.36 15 0 15 C0 10.05 0 5.1 0 0 Z " fill="#2D2E82" transform="translate(114,90)"/>
<path d="M0 0 C4.95 0 9.9 0 15 0 C15 1.32 15 2.64 15 4 C11.7 4 8.4 4 5 4 C5 5.32 5 6.64 5 8 C7.64 8 10.28 8 13 8 C13 9.32 13 10.64 13 12 C10.36 12 7.72 12 5 12 C5 13.32 5 14.64 5 16 C8.3 16 11.6 16 15 16 C15 17.32 15 18.64 15 20 C10.05 20 5.1 20 0 20 C0 13.4 0 6.8 0 0 Z " fill="#2D2E82" transform="translate(96,85)"/>
<path d="M0 0 C0.99 0 1.98 0 3 0 C3 0.99 3 1.98 3 3 C6.80989402 4.46534385 9.3241179 3.55203911 13 2 C13.33 1.34 13.66 0.68 14 0 C14.99 0 15.98 0 17 0 C17.33333333 1.33333333 17.66666667 2.66666667 18 4 C18.20625 4.680625 18.4125 5.36125 18.625 6.0625 C19 8 19 8 18 11 C15.125 11.125 15.125 11.125 12 11 C11.34 10.34 10.68 9.68 10 9 C9.67 9.66 9.34 10.32 9 11 C7.0625 10.6875 7.0625 10.6875 5 10 C4.67 9.01 4.34 8.02 4 7 C3.67 8.32 3.34 9.64 3 11 C2.01 11 1.02 11 0 11 C0 9.35 0 7.7 0 6 C-0.99 6 -1.98 6 -3 6 C-3 7.65 -3 9.3 -3 11 C-3.99 11 -4.98 11 -6 11 C-6 8.36 -6 5.72 -6 3 C-4.02 3 -2.04 3 0 3 C0 2.01 0 1.02 0 0 Z " fill="#2D2E82" transform="translate(152,66)"/>
<path d="M0 0 C3.375 1.125 3.375 1.125 5.3125 3.5 C6.375 6.125 6.375 6.125 6.375 9.125 C3.075 9.125 -0.225 9.125 -3.625 9.125 C-3.625 9.785 -3.625 10.445 -3.625 11.125 C-1.954375 10.8465625 -1.954375 10.8465625 -0.25 10.5625 C3.375 10.125 3.375 10.125 5.375 11.125 C5.375 12.115 5.375 13.105 5.375 14.125 C2.24793041 15.6885348 -1.20482443 15.52458487 -4.625 15.125 C-7.625 13.125 -7.625 13.125 -8.625 9.3125 C-8.93248251 5.80207473 -8.67644909 5.20378142 -6.625 2.0625 C-3.625 0.125 -3.625 0.125 0 0 Z M-2.625 4.125 C-2.955 4.785 -3.285 5.445 -3.625 6.125 C-1.975 6.125 -0.325 6.125 1.375 6.125 C1.045 5.465 0.715 4.805 0.375 4.125 C-0.615 4.125 -1.605 4.125 -2.625 4.125 Z " fill="#2D2E82" transform="translate(212.625,89.875)"/>
<path d="M0 0 C3.32029857 0.5533831 4.79223462 0.95257841 7 3.5 C7.25 6.6875 7.25 6.6875 7 9.5 C4.03 9.5 1.06 9.5 -2 9.5 C-2 10.16 -2 10.82 -2 11.5 C-0.329375 11.2215625 -0.329375 11.2215625 1.375 10.9375 C5 10.5 5 10.5 7 11.5 C6.34 12.82 5.68 14.14 5 15.5 C-2.25581395 15.98372093 -2.25581395 15.98372093 -5.5 13.875 C-7.4674199 10.75991849 -7.5923739 9.12829011 -7 5.5 C-4.99823224 1.95841088 -4.06491267 0.67748545 0 0 Z M-1 4.5 C-1.33 5.16 -1.66 5.82 -2 6.5 C-0.35 6.5 1.3 6.5 3 6.5 C2.67 5.84 2.34 5.18 2 4.5 C1.01 4.5 0.02 4.5 -1 4.5 Z " fill="#2D2E82" transform="translate(163,89.5)"/>
<path d="M0 0 C3.96 0 7.92 0 12 0 C12 5 12 5 9.5 7.8125 C8.675 8.534375 7.85 9.25625 7 10 C8.65 10.33 10.3 10.66 12 11 C12 12.32 12 13.64 12 15 C8.04 15 4.08 15 0 15 C0.98425899 10.07870506 1.8162018 8.59461087 5 5 C3.35 4.67 1.7 4.34 0 4 C0 2.68 0 1.36 0 0 Z " fill="#2D2E82" transform="translate(231,90)"/>
<path d="M0 0 C1.65 0 3.3 0 5 0 C5 5.28 5 10.56 5 16 C5.99 16 6.98 16 8 16 C8 17.32 8 18.64 8 20 C5.125 20.125 5.125 20.125 2 20 C0 18 0 18 -0.22705078 16.12060547 C-0.21657715 15.37697754 -0.20610352 14.63334961 -0.1953125 13.8671875 C-0.18886719 13.06152344 -0.18242187 12.25585938 -0.17578125 11.42578125 C-0.15064453 10.16314453 -0.15064453 10.16314453 -0.125 8.875 C-0.11597656 8.02550781 -0.10695312 7.17601563 -0.09765625 6.30078125 C-0.07405647 4.20040116 -0.03818483 2.10016556 0 0 Z " fill="#2D2E82" transform="translate(148,85)"/>
<path d="M0 0 C1.32 0 2.64 0 4 0 C4 1.32 4 2.64 4 4 C4.99 4 5.98 4 7 4 C7 5.32 7 6.64 7 8 C6.01 8 5.02 8 4 8 C4 10.31 4 12.62 4 15 C4.99 15 5.98 15 7 15 C7 16.32 7 17.64 7 19 C4.625 19.125 4.625 19.125 2 19 C0 17 0 17 -0.1953125 14.8359375 C-0.17210937 14.02382812 -0.14890625 13.21171875 -0.125 12.375 C-0.10695312 11.55773437 -0.08890625 10.74046875 -0.0703125 9.8984375 C-0.04710937 9.27195312 -0.02390625 8.64546875 0 8 C-0.66 8 -1.32 8 -2 8 C-2 6.68 -2 5.36 -2 4 C-1.34 4 -0.68 4 0 4 C0 2.68 0 1.36 0 0 Z " fill="#2D2E82" transform="translate(222,86)"/>
<path d="M0 0 C2.475 0.495 2.475 0.495 5 1 C5 5.62 5 10.24 5 15 C3.35 15 1.7 15 0 15 C0 10.05 0 5.1 0 0 Z " fill="#2D2E82" transform="translate(140,90)"/>
<path d="M0 0 C3.0625 0.125 3.0625 0.125 5.0625 1.125 C5.0625 3.105 5.0625 5.085 5.0625 7.125 C3.4125 7.455 1.7625 7.785 0.0625 8.125 C0.0625 9.115 0.0625 10.105 0.0625 11.125 C-1.2575 10.795 -2.5775 10.465 -3.9375 10.125 C-3.96439216 8.64593108 -3.98384621 7.16672517 -4 5.6875 C-4.01160156 4.86378906 -4.02320313 4.04007812 -4.03515625 3.19140625 C-3.87928644 -0.10679899 -3.35249348 0.1426593 0 0 Z M0.0625 3.125 C0.0625 3.785 0.0625 4.445 0.0625 5.125 C0.7225 5.125 1.3825 5.125 2.0625 5.125 C2.0625 4.465 2.0625 3.805 2.0625 3.125 C1.4025 3.125 0.7425 3.125 0.0625 3.125 Z " fill="#2D2E82" transform="translate(139.9375,65.875)"/>
<path d="M0 0 C1.65 0 3.3 0 5 0 C5 1.32 5 2.64 5 4 C3.35 4 1.7 4 0 4 C0 2.68 0 1.36 0 0 Z " fill="#2D2E82" transform="translate(140,85)"/>
</svg>
